<svg id="Layer_1" data-name="Layer 1" xmlns="http://www.w3.org/2000/svg" viewBox="0 0 549.84 132.54"><defs><style>.cls-1{fill:#231f20;}</style></defs><title>sb-logo</title><path id="Wordmark" class="cls-1" d="M993.85,333.86a16.47,16.47,0,0,0-11.4-4.8c-4.08,0-6.94,1.68-6.94,4.47s2,4,6,4.8l7.13,1.42c8.17,1.62,13.28,4.86,13.28,12.64,0,9.14-8.1,14.19-18.53,14.19-10.17,0-17.17-5.44-19.89-9.2l6.81-5.83a16.57,16.57,0,0,0,13.35,6.87c5.12,0,8.1-2,8.1-5.25,0-3-2.59-3.89-6.61-4.6l-5.7-1.1c-8-1.56-14.12-4.47-14.12-13.09,0-7.9,7.32-13.41,17-13.41,7.78,0,14,2.92,17.75,6.93Zm24.29-12.12h34v8.75H1040V365.8h-9.79V330.49h-12.12v-8.75Zm74.77,44.06h-9.79V348.18l-15.68-26.44h11.28l9.72,16.91,10-16.91h11.21l-16.72,26.5V365.8ZM1138,321.74V357h18.36v8.81h-28.14V321.74H1138Zm98.54,44.06V321.74h18.79c5.38,0,7.91.58,10,1.69a10.4,10.4,0,0,1,5.7,9.72,9.63,9.63,0,0,1-6.93,9.33v0.07c4.6,1.36,8.55,4.67,8.55,10.89a11.25,11.25,0,0,1-6,10.5c-2.27,1.23-4.73,1.88-10.56,1.88H1236.5Zm23.2-34.92c-1.16-.78-2.59-1-5.57-1h-8v9.4h7.9c3.37,0,4.73-.13,6-1.23a4.89,4.89,0,0,0,1.36-3.63A4.21,4.21,0,0,0,1259.7,330.88Zm-13.54,26.69h8.17c3.43,0,5.05-.13,6.28-1s2.07-2.46,2.07-4.6a4.68,4.68,0,0,0-3.17-4.79,19.73,19.73,0,0,0-5.18-.45h-8.17v10.82Zm61.28-27.21V339h19.91v8.55h-19.91v9.53h22v8.68h-31.74V321.74h31.7v8.62h-22Zm-120.28,0V339h19.91v8.55h-19.91v9.53h22v8.68h-31.74V321.74h31.7v8.62h-22Zm178.55,0V339h19.91v8.55h-19.91v9.53h22v8.68H1356V321.74h31.7v8.62h-22Z" transform="translate(-837.88 -277.32)"/><path id="Symbol" class="cls-1" d="M921.14,368.23a41.63,41.63,0,0,1-83.27.13c0-1.56.09-2.43,0.09-2.47h8c-0.05,2.06,0,2.42,0,2.46a33.55,33.55,0,1,0,64.46-13.16,34.32,34.32,0,0,0-7.31-10.74l-23-23-0.54-.54V309.44l0.57,0.57,2.47,2.47,26.23,26.24a42.4,42.4,0,0,1,9,13.3A41.4,41.4,0,0,1,921.14,368.23Zm-2.54-53A39.07,39.07,0,1,0,851.94,344l24.66,24.62,3,3V360.17l-21.91-21.88a31,31,0,1,1,52.86-23h8.09Z" transform="translate(-837.88 -277.32)"/></svg>